<?xml version="1.0" encoding="utf-8"?>
<!-- Svg Vector Icons : http://www.onlinewebfonts.com/icon -->
<!DOCTYPE svg PUBLIC "-//W3C//DTD SVG 1.1//EN" "http://www.w3.org/Graphics/SVG/1.1/DTD/svg11.dtd">
<svg version="1.1" xmlns="http://www.w3.org/2000/svg" xmlns:xlink="http://www.w3.org/1999/xlink" x="0px" y="0px" viewBox="0 0 256 256" enable-background="new 0 0 256 256" xml:space="preserve">
<metadata> Svg Vector Icons : http://www.onlinewebfonts.com/icon </metadata>
<g><g><g><path stroke-width="8" fill-opacity="0" stroke="#000000"  d="M158.3,10.9c-1,0.5-2.3,1.6-2.9,2.4c-0.6,0.8-17,23.6-36.4,50.6L84,113l-25.1,0.3c-27.1,0.3-28.7,0.4-36,3c-4.7,1.7-7.8,3.5-10.2,6.2c-3.6,4.1-3.5,7.4,0.6,11.5c3.8,3.7,9.2,6.1,18.2,7.9c1.4,0.3,13,0.6,27.5,0.8l25.1,0.3l35.6,49.7c19.6,27.3,36,50.1,36.5,50.6c1.8,2.1,4,2.7,9.2,2.7c2.7,0,5.3-0.2,5.6-0.4c0.4-0.2,0.6-0.8,0.4-1.5c-0.1-0.6-6.6-15.9-14.4-34l-14.1-32.9V160v-17.2l28-0.3c15.4-0.1,29-0.4,30.3-0.5l2.3-0.3l13,14.3c15,16.5,14.7,16.2,21.7,16.2c7.6,0,7.6-0.7-0.6-19.9c-3.4-7.9-6.3-14.7-6.4-15c-0.1-0.4,1.6-1.2,4.9-2.4c5.4-2,8.3-3.7,9.4-5.7c0.6-1.1,0.6-1.4,0-2.5c-1.1-1.9-4.4-3.9-9.7-5.6c-2.7-0.9-4.9-1.6-5-1.7c0,0,2.8-6.8,6.4-15.1c8.5-19.9,8.5-20.6,0.9-20.6c-7,0-6.7-0.3-21.7,16.2l-13,14.3l-2.4-0.3c-1.3-0.1-14.9-0.4-30.3-0.5l-28-0.3V95.9V78.8l14.1-32.9c7.8-18.1,14.2-33.4,14.4-34c0.1-0.6,0-1.2-0.4-1.5c-0.4-0.2-2.9-0.4-5.7-0.4C161,10,159.7,10.2,158.3,10.9z"/></g></g></g>
</svg>